<mxfile host="app.diagrams.net" agent="Mozilla/5.0 (Macintosh; Intel Mac OS X 10_15_7) AppleWebKit/605.1.15 (KHTML, like Gecko) Version/18.3 Safari/605.1.15" version="26.0.10">
  <diagram name="Page-1" id="pJTaLTdutclK3Nul-7sI">
    <mxGraphModel dx="2232" dy="932" grid="1" gridSize="10" guides="1" tooltips="1" connect="1" arrows="1" fold="1" page="1" pageScale="1" pageWidth="850" pageHeight="1100" math="0" shadow="0">
      <root>
        <mxCell id="0" />
        <mxCell id="1" parent="0" />
        <mxCell id="lrfcWN01Q5DTacEuJ4kS-73" value="&lt;b&gt;Step 6:&lt;/b&gt; Send Host, Port, and Message&amp;nbsp;&lt;div&gt;information to Process Window to&lt;/div&gt;&lt;div&gt;Create New Child Process&lt;/div&gt;" style="edgeStyle=orthogonalEdgeStyle;rounded=0;orthogonalLoop=1;jettySize=auto;html=1;exitX=0.5;exitY=0;exitDx=0;exitDy=0;entryX=1;entryY=0.25;entryDx=0;entryDy=0;jumpStyle=arc;" edge="1" parent="1" source="lrfcWN01Q5DTacEuJ4kS-39" target="lrfcWN01Q5DTacEuJ4kS-11">
          <mxGeometry x="-0.0386" relative="1" as="geometry">
            <Array as="points">
              <mxPoint x="220" y="288" />
              <mxPoint x="970" y="288" />
              <mxPoint x="970" y="500" />
            </Array>
            <mxPoint x="-1" as="offset" />
          </mxGeometry>
        </mxCell>
        <mxCell id="lrfcWN01Q5DTacEuJ4kS-71" value="&lt;b&gt;Step 4:&lt;/b&gt; User Clicks &quot;Create&quot;&lt;div&gt;Button&lt;/div&gt;" style="endArrow=classic;html=1;rounded=0;entryX=0.5;entryY=0;entryDx=0;entryDy=0;" edge="1" parent="1" source="lrfcWN01Q5DTacEuJ4kS-70" target="lrfcWN01Q5DTacEuJ4kS-1">
          <mxGeometry x="-0.2941" width="50" height="50" relative="1" as="geometry">
            <mxPoint x="440" y="380" as="sourcePoint" />
            <mxPoint x="420" y="340" as="targetPoint" />
            <mxPoint as="offset" />
          </mxGeometry>
        </mxCell>
        <mxCell id="lrfcWN01Q5DTacEuJ4kS-3" value="Fork-App (Electron)" style="rounded=1;whiteSpace=wrap;html=1;fillColor=#dae8fc;strokeColor=#6c8ebf;" vertex="1" parent="1">
          <mxGeometry x="700" y="160" width="210" height="20" as="geometry" />
        </mxCell>
        <mxCell id="lrfcWN01Q5DTacEuJ4kS-4" value="Echo Server (Deno)" style="rounded=1;whiteSpace=wrap;html=1;fillColor=#d5e8d4;strokeColor=#82b366;" vertex="1" parent="1">
          <mxGeometry x="700" y="190" width="210" height="20" as="geometry" />
        </mxCell>
        <mxCell id="lrfcWN01Q5DTacEuJ4kS-14" value="" style="group" vertex="1" connectable="0" parent="1">
          <mxGeometry x="550" y="590" width="160" height="70" as="geometry" />
        </mxCell>
        <mxCell id="lrfcWN01Q5DTacEuJ4kS-12" value="" style="rounded=1;whiteSpace=wrap;html=1;fillColor=#d5e8d4;strokeColor=#82b366;" vertex="1" parent="lrfcWN01Q5DTacEuJ4kS-14">
          <mxGeometry width="140" height="50" as="geometry" />
        </mxCell>
        <mxCell id="lrfcWN01Q5DTacEuJ4kS-13" value="" style="rounded=1;whiteSpace=wrap;html=1;fillColor=#d5e8d4;strokeColor=#82b366;" vertex="1" parent="lrfcWN01Q5DTacEuJ4kS-14">
          <mxGeometry x="10" y="10" width="140" height="50" as="geometry" />
        </mxCell>
        <mxCell id="lrfcWN01Q5DTacEuJ4kS-2" value="Echo Server&lt;div&gt;(Deno Application)&lt;/div&gt;" style="rounded=1;whiteSpace=wrap;html=1;fillColor=#d5e8d4;strokeColor=#82b366;" vertex="1" parent="lrfcWN01Q5DTacEuJ4kS-14">
          <mxGeometry x="20" y="20" width="140" height="50" as="geometry" />
        </mxCell>
        <mxCell id="lrfcWN01Q5DTacEuJ4kS-68" value="&lt;b&gt;Step 2:&lt;/b&gt; Calls createMainWindow()" style="edgeStyle=orthogonalEdgeStyle;rounded=0;orthogonalLoop=1;jettySize=auto;html=1;exitX=1;exitY=0.5;exitDx=0;exitDy=0;entryX=1;entryY=0.5;entryDx=0;entryDy=0;" edge="1" parent="1" source="lrfcWN01Q5DTacEuJ4kS-7" target="lrfcWN01Q5DTacEuJ4kS-10">
          <mxGeometry relative="1" as="geometry">
            <Array as="points">
              <mxPoint x="880" y="353" />
              <mxPoint x="880" y="433" />
            </Array>
          </mxGeometry>
        </mxCell>
        <mxCell id="lrfcWN01Q5DTacEuJ4kS-7" value="index.ts&amp;nbsp;&lt;div&gt;(Main)&lt;/div&gt;" style="rounded=1;whiteSpace=wrap;html=1;fillColor=#dae8fc;strokeColor=#6c8ebf;" vertex="1" parent="1">
          <mxGeometry x="710" y="327.5" width="140" height="50" as="geometry" />
        </mxCell>
        <mxCell id="lrfcWN01Q5DTacEuJ4kS-69" value="&lt;b&gt;Step 3:&lt;/b&gt; Loads&amp;nbsp;&lt;div&gt;React&amp;nbsp;&lt;div&gt;App to&amp;nbsp;&lt;/div&gt;&lt;div&gt;Instruction&amp;nbsp;&lt;/div&gt;&lt;div&gt;Route&lt;/div&gt;&lt;/div&gt;" style="edgeStyle=orthogonalEdgeStyle;rounded=0;orthogonalLoop=1;jettySize=auto;html=1;exitX=0;exitY=0.5;exitDx=0;exitDy=0;entryX=1;entryY=0.5;entryDx=0;entryDy=0;" edge="1" parent="1" source="lrfcWN01Q5DTacEuJ4kS-10" target="lrfcWN01Q5DTacEuJ4kS-1">
          <mxGeometry x="-0.5787" y="-22" relative="1" as="geometry">
            <Array as="points">
              <mxPoint x="615" y="432" />
              <mxPoint x="615" y="385" />
            </Array>
            <mxPoint x="1" as="offset" />
          </mxGeometry>
        </mxCell>
        <mxCell id="lrfcWN01Q5DTacEuJ4kS-75" value="&lt;b&gt;Step 8: &lt;/b&gt;Receives ProcessObject to Add to Process Manager List." style="edgeStyle=orthogonalEdgeStyle;rounded=0;orthogonalLoop=1;jettySize=auto;html=1;exitX=0;exitY=0.25;exitDx=0;exitDy=0;entryX=0.5;entryY=0;entryDx=0;entryDy=0;jumpStyle=arc;" edge="1" parent="1" source="lrfcWN01Q5DTacEuJ4kS-11" target="lrfcWN01Q5DTacEuJ4kS-47">
          <mxGeometry x="0.4" relative="1" as="geometry">
            <Array as="points">
              <mxPoint x="600" y="500" />
              <mxPoint x="600" y="100" />
              <mxPoint x="220" y="100" />
            </Array>
            <mxPoint as="offset" />
          </mxGeometry>
        </mxCell>
        <mxCell id="lrfcWN01Q5DTacEuJ4kS-101" value="&lt;b&gt;Step 10- Step 11&lt;/b&gt;" style="edgeStyle=orthogonalEdgeStyle;rounded=0;orthogonalLoop=1;jettySize=auto;html=1;exitX=0.75;exitY=0;exitDx=0;exitDy=0;entryX=0.75;entryY=1;entryDx=0;entryDy=0;curved=1;fontColor=#3333FF;strokeColor=#3333FF;" edge="1" parent="1" source="lrfcWN01Q5DTacEuJ4kS-10" target="lrfcWN01Q5DTacEuJ4kS-11">
          <mxGeometry x="-0.386" y="-7" relative="1" as="geometry">
            <mxPoint as="offset" />
          </mxGeometry>
        </mxCell>
        <mxCell id="lrfcWN01Q5DTacEuJ4kS-10" value="main_window.ts&amp;nbsp;&lt;div&gt;(Main)&lt;/div&gt;" style="rounded=1;whiteSpace=wrap;html=1;fillColor=#dae8fc;strokeColor=#6c8ebf;" vertex="1" parent="1">
          <mxGeometry x="710" y="407.5" width="140" height="50" as="geometry" />
        </mxCell>
        <mxCell id="lrfcWN01Q5DTacEuJ4kS-79" value="&lt;b&gt;Step 7: &lt;/b&gt;Spawn New Echo&lt;div&gt;Server with Argument&amp;nbsp;&lt;/div&gt;&lt;div&gt;Variables.&lt;/div&gt;" style="edgeStyle=orthogonalEdgeStyle;rounded=0;orthogonalLoop=1;jettySize=auto;html=1;exitX=0.5;exitY=1;exitDx=0;exitDy=0;entryX=1;entryY=0.5;entryDx=0;entryDy=0;" edge="1" parent="1" source="lrfcWN01Q5DTacEuJ4kS-11" target="lrfcWN01Q5DTacEuJ4kS-2">
          <mxGeometry x="-0.2537" relative="1" as="geometry">
            <mxPoint as="offset" />
          </mxGeometry>
        </mxCell>
        <mxCell id="lrfcWN01Q5DTacEuJ4kS-86" value="&lt;b&gt;Step 11:&lt;/b&gt; Loads React App to Echo Server Viewer Route" style="edgeStyle=orthogonalEdgeStyle;rounded=0;orthogonalLoop=1;jettySize=auto;html=1;exitX=0;exitY=0.5;exitDx=0;exitDy=0;entryX=1;entryY=0.75;entryDx=0;entryDy=0;" edge="1" parent="1" source="lrfcWN01Q5DTacEuJ4kS-11" target="lrfcWN01Q5DTacEuJ4kS-41">
          <mxGeometry relative="1" as="geometry">
            <Array as="points">
              <mxPoint x="570" y="512" />
              <mxPoint x="570" y="545" />
            </Array>
          </mxGeometry>
        </mxCell>
        <mxCell id="lrfcWN01Q5DTacEuJ4kS-88" value="&lt;b&gt;Step 13:&lt;/b&gt; Receives Host and Port Information for Echo Server." style="edgeStyle=orthogonalEdgeStyle;rounded=0;orthogonalLoop=1;jettySize=auto;html=1;exitX=1;exitY=0.75;exitDx=0;exitDy=0;entryX=0.25;entryY=1;entryDx=0;entryDy=0;" edge="1" parent="1" source="lrfcWN01Q5DTacEuJ4kS-11" target="lrfcWN01Q5DTacEuJ4kS-41">
          <mxGeometry relative="1" as="geometry">
            <Array as="points">
              <mxPoint x="870" y="525" />
              <mxPoint x="870" y="710" />
              <mxPoint x="190" y="710" />
            </Array>
          </mxGeometry>
        </mxCell>
        <mxCell id="lrfcWN01Q5DTacEuJ4kS-94" value="&lt;b&gt;Step 17a&lt;/b&gt;: Upon successful kill of echo server process, close Echo Server Viewer" style="edgeStyle=orthogonalEdgeStyle;rounded=0;orthogonalLoop=1;jettySize=auto;html=1;exitX=0.75;exitY=1;exitDx=0;exitDy=0;entryX=0;entryY=0.75;entryDx=0;entryDy=0;jumpStyle=arc;" edge="1" parent="1" source="lrfcWN01Q5DTacEuJ4kS-11" target="lrfcWN01Q5DTacEuJ4kS-41">
          <mxGeometry relative="1" as="geometry">
            <Array as="points">
              <mxPoint x="815" y="800" />
              <mxPoint x="90" y="800" />
              <mxPoint x="90" y="545" />
            </Array>
          </mxGeometry>
        </mxCell>
        <mxCell id="lrfcWN01Q5DTacEuJ4kS-95" value="&lt;b&gt;Step 17b:&lt;/b&gt; Upon successful kill of echo server process, send echo server destroyed event with PID." style="edgeStyle=orthogonalEdgeStyle;rounded=0;orthogonalLoop=1;jettySize=auto;html=1;exitX=0.75;exitY=0;exitDx=0;exitDy=0;entryX=0.25;entryY=0;entryDx=0;entryDy=0;" edge="1" parent="1" source="lrfcWN01Q5DTacEuJ4kS-11" target="lrfcWN01Q5DTacEuJ4kS-47">
          <mxGeometry x="0.2193" relative="1" as="geometry">
            <Array as="points">
              <mxPoint x="815" y="20" />
              <mxPoint x="173" y="20" />
            </Array>
            <mxPoint as="offset" />
          </mxGeometry>
        </mxCell>
        <mxCell id="lrfcWN01Q5DTacEuJ4kS-11" value="process_window.ts (Main)" style="rounded=1;whiteSpace=wrap;html=1;fillColor=#dae8fc;strokeColor=#6c8ebf;" vertex="1" parent="1">
          <mxGeometry x="710" y="487.5" width="140" height="50" as="geometry" />
        </mxCell>
        <mxCell id="lrfcWN01Q5DTacEuJ4kS-72" value="&lt;b&gt;Step 5:&lt;/b&gt; User enters form details&amp;nbsp;&lt;div&gt;being Host, Port, and Message.&lt;/div&gt;" style="edgeStyle=orthogonalEdgeStyle;rounded=0;orthogonalLoop=1;jettySize=auto;html=1;exitX=0;exitY=0.5;exitDx=0;exitDy=0;entryX=0;entryY=0.5;entryDx=0;entryDy=0;" edge="1" parent="1" source="lrfcWN01Q5DTacEuJ4kS-1" target="lrfcWN01Q5DTacEuJ4kS-39">
          <mxGeometry x="0.4218" relative="1" as="geometry">
            <Array as="points">
              <mxPoint x="30" y="385" />
              <mxPoint x="30" y="338" />
            </Array>
            <mxPoint as="offset" />
          </mxGeometry>
        </mxCell>
        <mxCell id="lrfcWN01Q5DTacEuJ4kS-81" value="&lt;b&gt;Step 10:&lt;/b&gt; Calls&amp;nbsp;&lt;div&gt;createProcessWindow(PID)&lt;/div&gt;" style="edgeStyle=orthogonalEdgeStyle;rounded=0;orthogonalLoop=1;jettySize=auto;html=1;exitX=0.75;exitY=0;exitDx=0;exitDy=0;entryX=0.5;entryY=1;entryDx=0;entryDy=0;jumpStyle=arc;" edge="1" parent="1" source="lrfcWN01Q5DTacEuJ4kS-1" target="lrfcWN01Q5DTacEuJ4kS-10">
          <mxGeometry x="-0.7366" y="10" relative="1" as="geometry">
            <Array as="points">
              <mxPoint x="485" y="330" />
              <mxPoint x="550" y="330" />
              <mxPoint x="550" y="478" />
              <mxPoint x="780" y="478" />
            </Array>
            <mxPoint x="1" as="offset" />
          </mxGeometry>
        </mxCell>
        <mxCell id="lrfcWN01Q5DTacEuJ4kS-1" value="Main Window&lt;div&gt;(Renderer)&lt;/div&gt;" style="rounded=1;whiteSpace=wrap;html=1;fillColor=#dae8fc;strokeColor=#6c8ebf;" vertex="1" parent="1">
          <mxGeometry x="380" y="360" width="140" height="50" as="geometry" />
        </mxCell>
        <mxCell id="lrfcWN01Q5DTacEuJ4kS-6" value="Process Viewer&lt;div&gt;(Renderer)&lt;/div&gt;" style="rounded=1;whiteSpace=wrap;html=1;fillColor=#dae8fc;strokeColor=#6c8ebf;" vertex="1" parent="1">
          <mxGeometry x="380" y="450" width="140" height="50" as="geometry" />
        </mxCell>
        <mxCell id="lrfcWN01Q5DTacEuJ4kS-37" value="Process Viewer&lt;div&gt;(Renderer)&lt;/div&gt;" style="rounded=1;whiteSpace=wrap;html=1;fillColor=#dae8fc;strokeColor=#6c8ebf;" vertex="1" parent="1">
          <mxGeometry x="390" y="460" width="140" height="50" as="geometry" />
        </mxCell>
        <mxCell id="lrfcWN01Q5DTacEuJ4kS-38" value="Process Viewer&lt;div&gt;(Renderer)&lt;/div&gt;" style="rounded=1;whiteSpace=wrap;html=1;fillColor=#dae8fc;strokeColor=#6c8ebf;" vertex="1" parent="1">
          <mxGeometry x="400" y="470" width="140" height="50" as="geometry" />
        </mxCell>
        <mxCell id="lrfcWN01Q5DTacEuJ4kS-39" value="Create Process Route&lt;div&gt;(&quot;/main/new&quot;)&lt;/div&gt;" style="rounded=0;whiteSpace=wrap;html=1;fillColor=#f8cecc;strokeColor=#b85450;" vertex="1" parent="1">
          <mxGeometry x="160" y="307.5" width="120" height="60" as="geometry" />
        </mxCell>
        <mxCell id="lrfcWN01Q5DTacEuJ4kS-98" value="&lt;b&gt;Step 9-10:&lt;/b&gt; call handleProcessViewer()" style="edgeStyle=orthogonalEdgeStyle;rounded=0;orthogonalLoop=1;jettySize=auto;html=1;exitX=1;exitY=0.5;exitDx=0;exitDy=0;entryX=0.5;entryY=1;entryDx=0;entryDy=0;" edge="1" parent="1" source="lrfcWN01Q5DTacEuJ4kS-40" target="lrfcWN01Q5DTacEuJ4kS-1">
          <mxGeometry x="0.2463" relative="1" as="geometry">
            <Array as="points">
              <mxPoint x="450" y="433" />
            </Array>
            <mxPoint as="offset" />
          </mxGeometry>
        </mxCell>
        <mxCell id="lrfcWN01Q5DTacEuJ4kS-40" value="Instruction Route&lt;div&gt;(&quot;/main&quot;)&lt;/div&gt;" style="rounded=0;whiteSpace=wrap;html=1;fillColor=#f8cecc;strokeColor=#b85450;" vertex="1" parent="1">
          <mxGeometry x="160" y="402.5" width="120" height="60" as="geometry" />
        </mxCell>
        <mxCell id="lrfcWN01Q5DTacEuJ4kS-51" value="&lt;b&gt;Step 14:&lt;/b&gt; Sends request to get Message using REST API" style="edgeStyle=orthogonalEdgeStyle;rounded=0;orthogonalLoop=1;jettySize=auto;html=1;exitX=0.5;exitY=1;exitDx=0;exitDy=0;entryX=0;entryY=0.5;entryDx=0;entryDy=0;" edge="1" parent="1" source="lrfcWN01Q5DTacEuJ4kS-41" target="lrfcWN01Q5DTacEuJ4kS-12">
          <mxGeometry relative="1" as="geometry" />
        </mxCell>
        <mxCell id="lrfcWN01Q5DTacEuJ4kS-87" value="&lt;b&gt;Step 12:&lt;/b&gt; Sends request to get Host and Port information based upon PID." style="edgeStyle=orthogonalEdgeStyle;rounded=0;orthogonalLoop=1;jettySize=auto;html=1;exitX=0.75;exitY=1;exitDx=0;exitDy=0;entryX=0.25;entryY=1;entryDx=0;entryDy=0;" edge="1" parent="1" source="lrfcWN01Q5DTacEuJ4kS-41" target="lrfcWN01Q5DTacEuJ4kS-11">
          <mxGeometry relative="1" as="geometry" />
        </mxCell>
        <mxCell id="lrfcWN01Q5DTacEuJ4kS-93" value="&lt;b&gt;Step 16: &lt;/b&gt;Send request to destroy echo server instance using PID" style="edgeStyle=orthogonalEdgeStyle;rounded=0;orthogonalLoop=1;jettySize=auto;html=1;exitX=0;exitY=0.25;exitDx=0;exitDy=0;entryX=1;entryY=0.5;entryDx=0;entryDy=0;" edge="1" parent="1" source="lrfcWN01Q5DTacEuJ4kS-41" target="lrfcWN01Q5DTacEuJ4kS-11">
          <mxGeometry relative="1" as="geometry">
            <Array as="points">
              <mxPoint x="140" y="515" />
              <mxPoint x="140" y="750" />
              <mxPoint x="890" y="750" />
              <mxPoint x="890" y="513" />
            </Array>
          </mxGeometry>
        </mxCell>
        <mxCell id="lrfcWN01Q5DTacEuJ4kS-41" value="&lt;div&gt;Echo Server Viewer&lt;/div&gt;&lt;div&gt;(&quot;/process/:pid&quot;)&lt;/div&gt;" style="rounded=0;whiteSpace=wrap;html=1;fillColor=#f8cecc;strokeColor=#b85450;" vertex="1" parent="1">
          <mxGeometry x="160" y="500" width="120" height="60" as="geometry" />
        </mxCell>
        <mxCell id="lrfcWN01Q5DTacEuJ4kS-42" value="" style="endArrow=none;dashed=1;html=1;dashPattern=1 3;strokeWidth=2;rounded=0;entryX=0;entryY=0.5;entryDx=0;entryDy=0;exitX=1;exitY=0.5;exitDx=0;exitDy=0;" edge="1" parent="1" source="lrfcWN01Q5DTacEuJ4kS-41" target="lrfcWN01Q5DTacEuJ4kS-6">
          <mxGeometry width="50" height="50" relative="1" as="geometry">
            <mxPoint x="480" y="490" as="sourcePoint" />
            <mxPoint x="530" y="440" as="targetPoint" />
          </mxGeometry>
        </mxCell>
        <mxCell id="lrfcWN01Q5DTacEuJ4kS-43" value="" style="endArrow=none;dashed=1;html=1;dashPattern=1 3;strokeWidth=2;rounded=0;entryX=0;entryY=0.75;entryDx=0;entryDy=0;exitX=1;exitY=0.5;exitDx=0;exitDy=0;" edge="1" parent="1" source="lrfcWN01Q5DTacEuJ4kS-40" target="lrfcWN01Q5DTacEuJ4kS-1">
          <mxGeometry width="50" height="50" relative="1" as="geometry">
            <mxPoint x="480" y="490" as="sourcePoint" />
            <mxPoint x="530" y="440" as="targetPoint" />
          </mxGeometry>
        </mxCell>
        <mxCell id="lrfcWN01Q5DTacEuJ4kS-44" value="" style="endArrow=none;dashed=1;html=1;dashPattern=1 3;strokeWidth=2;rounded=0;entryX=0;entryY=0.5;entryDx=0;entryDy=0;exitX=1;exitY=0.5;exitDx=0;exitDy=0;" edge="1" parent="1" source="lrfcWN01Q5DTacEuJ4kS-39" target="lrfcWN01Q5DTacEuJ4kS-1">
          <mxGeometry width="50" height="50" relative="1" as="geometry">
            <mxPoint x="480" y="490" as="sourcePoint" />
            <mxPoint x="530" y="440" as="targetPoint" />
          </mxGeometry>
        </mxCell>
        <mxCell id="lrfcWN01Q5DTacEuJ4kS-45" value="React Route (React)" style="rounded=1;whiteSpace=wrap;html=1;fillColor=#f8cecc;strokeColor=#b85450;" vertex="1" parent="1">
          <mxGeometry x="700" y="130" width="210" height="20" as="geometry" />
        </mxCell>
        <mxCell id="lrfcWN01Q5DTacEuJ4kS-46" value="React Component (React)" style="rounded=1;whiteSpace=wrap;html=1;fillColor=#ffe6cc;strokeColor=#d79b00;" vertex="1" parent="1">
          <mxGeometry x="700" y="100" width="210" height="20" as="geometry" />
        </mxCell>
        <mxCell id="lrfcWN01Q5DTacEuJ4kS-47" value="useProcessManager&lt;div&gt;(Array&amp;lt;IProcessObject&amp;gt;)&lt;/div&gt;" style="rounded=0;whiteSpace=wrap;html=1;fillColor=#ffe6cc;strokeColor=#d79b00;" vertex="1" parent="1">
          <mxGeometry x="125" y="210" width="190" height="60" as="geometry" />
        </mxCell>
        <mxCell id="lrfcWN01Q5DTacEuJ4kS-49" value="" style="endArrow=none;dashed=1;html=1;dashPattern=1 3;strokeWidth=2;rounded=0;entryX=1;entryY=0.5;entryDx=0;entryDy=0;exitX=0;exitY=0.25;exitDx=0;exitDy=0;" edge="1" parent="1" source="lrfcWN01Q5DTacEuJ4kS-1" target="lrfcWN01Q5DTacEuJ4kS-47">
          <mxGeometry width="50" height="50" relative="1" as="geometry">
            <mxPoint x="380" y="360" as="sourcePoint" />
            <mxPoint x="430" y="310" as="targetPoint" />
          </mxGeometry>
        </mxCell>
        <mxCell id="lrfcWN01Q5DTacEuJ4kS-54" value="User" style="shape=umlActor;verticalLabelPosition=bottom;verticalAlign=top;html=1;outlineConnect=0;" vertex="1" parent="1">
          <mxGeometry x="1010" y="160" width="30" height="60" as="geometry" />
        </mxCell>
        <mxCell id="lrfcWN01Q5DTacEuJ4kS-63" value="&lt;b&gt;Step 1:&lt;/b&gt; User Launches App" style="endArrow=classic;html=1;rounded=0;entryX=0.5;entryY=0;entryDx=0;entryDy=0;fillColor=#FF0000;fontColor=#FF0000;" edge="1" parent="1" source="lrfcWN01Q5DTacEuJ4kS-54" target="lrfcWN01Q5DTacEuJ4kS-7">
          <mxGeometry width="50" height="50" relative="1" as="geometry">
            <mxPoint x="780" y="370" as="sourcePoint" />
            <mxPoint x="830" y="320" as="targetPoint" />
          </mxGeometry>
        </mxCell>
        <mxCell id="lrfcWN01Q5DTacEuJ4kS-70" value="User" style="shape=umlActor;verticalLabelPosition=bottom;verticalAlign=top;html=1;outlineConnect=0;" vertex="1" parent="1">
          <mxGeometry x="435" y="130" width="30" height="60" as="geometry" />
        </mxCell>
        <mxCell id="lrfcWN01Q5DTacEuJ4kS-77" value="&lt;b&gt;Step 9:&lt;/b&gt; User Clicks on Newly Added&lt;div&gt;PID on Top Navigation Bar&lt;/div&gt;" style="endArrow=classic;html=1;rounded=0;entryX=0;entryY=0.5;entryDx=0;entryDy=0;" edge="1" parent="1" source="lrfcWN01Q5DTacEuJ4kS-78" target="lrfcWN01Q5DTacEuJ4kS-40">
          <mxGeometry x="0.0321" y="3" width="50" height="50" relative="1" as="geometry">
            <mxPoint x="15" y="320" as="sourcePoint" />
            <mxPoint x="25" y="300" as="targetPoint" />
            <mxPoint x="-1" as="offset" />
          </mxGeometry>
        </mxCell>
        <mxCell id="lrfcWN01Q5DTacEuJ4kS-78" value="User" style="shape=umlActor;verticalLabelPosition=bottom;verticalAlign=top;html=1;outlineConnect=0;" vertex="1" parent="1">
          <mxGeometry x="-100" y="445" width="30" height="60" as="geometry" />
        </mxCell>
        <mxCell id="lrfcWN01Q5DTacEuJ4kS-89" value="User" style="shape=umlActor;verticalLabelPosition=bottom;verticalAlign=top;html=1;outlineConnect=0;" vertex="1" parent="1">
          <mxGeometry x="-10" y="610" width="30" height="60" as="geometry" />
        </mxCell>
        <mxCell id="lrfcWN01Q5DTacEuJ4kS-91" value="&lt;b&gt;Step 15:&lt;/b&gt; User Clicks End Process Button" style="endArrow=classic;html=1;rounded=0;exitX=0.5;exitY=0.5;exitDx=0;exitDy=0;exitPerimeter=0;entryX=0;entryY=0.5;entryDx=0;entryDy=0;" edge="1" parent="1" source="lrfcWN01Q5DTacEuJ4kS-89" target="lrfcWN01Q5DTacEuJ4kS-41">
          <mxGeometry x="0.0072" width="50" height="50" relative="1" as="geometry">
            <mxPoint x="430" y="470" as="sourcePoint" />
            <mxPoint x="480" y="420" as="targetPoint" />
            <mxPoint as="offset" />
          </mxGeometry>
        </mxCell>
        <mxCell id="lrfcWN01Q5DTacEuJ4kS-97" value="&lt;b&gt;Step 8 - Step 9&lt;/b&gt;" style="edgeStyle=orthogonalEdgeStyle;rounded=0;orthogonalLoop=1;jettySize=auto;html=1;exitX=0;exitY=0.5;exitDx=0;exitDy=0;entryX=0.5;entryY=0;entryDx=0;entryDy=0;entryPerimeter=0;curved=1;fontColor=#3333FF;strokeColor=#3333FF;" edge="1" parent="1" source="lrfcWN01Q5DTacEuJ4kS-47" target="lrfcWN01Q5DTacEuJ4kS-78">
          <mxGeometry x="-0.3012" y="40" relative="1" as="geometry">
            <mxPoint as="offset" />
          </mxGeometry>
        </mxCell>
        <mxCell id="lrfcWN01Q5DTacEuJ4kS-102" value="&lt;b style=&quot;color: rgb(51, 51, 255);&quot;&gt;Step 14 - Step 15&lt;/b&gt;" style="edgeStyle=orthogonalEdgeStyle;rounded=0;orthogonalLoop=1;jettySize=auto;html=1;exitX=0.25;exitY=1;exitDx=0;exitDy=0;curved=1;strokeColor=#3333FF;" edge="1" parent="1" source="lrfcWN01Q5DTacEuJ4kS-2" target="lrfcWN01Q5DTacEuJ4kS-89">
          <mxGeometry relative="1" as="geometry" />
        </mxCell>
        <mxCell id="lrfcWN01Q5DTacEuJ4kS-103" value="&lt;b&gt;Step 3 - Step 4&lt;/b&gt;" style="edgeStyle=orthogonalEdgeStyle;rounded=0;orthogonalLoop=1;jettySize=auto;html=1;exitX=0.25;exitY=0;exitDx=0;exitDy=0;entryX=0;entryY=0.3333333333333333;entryDx=0;entryDy=0;entryPerimeter=0;curved=1;strokeColor=#3333FF;fontColor=#3333FF;" edge="1" parent="1" source="lrfcWN01Q5DTacEuJ4kS-1" target="lrfcWN01Q5DTacEuJ4kS-70">
          <mxGeometry x="0.1471" relative="1" as="geometry">
            <mxPoint as="offset" />
          </mxGeometry>
        </mxCell>
      </root>
    </mxGraphModel>
  </diagram>
</mxfile>
